<mxfile host="app.diagrams.net" agent="Mozilla/5.0 (Windows NT 10.0; Win64; x64) AppleWebKit/537.36 (KHTML, like Gecko) Chrome/122.0.0.0 Safari/537.36" version="24.7.5">
  <diagram id="PduiRk3ix0ZuUrKhneiX" name="Page-1">
    <mxGraphModel dx="1674" dy="796" grid="1" gridSize="10" guides="1" tooltips="1" connect="1" arrows="1" fold="1" page="1" pageScale="1" pageWidth="850" pageHeight="1100" math="0" shadow="0">
      <root>
        <mxCell id="0" />
        <mxCell id="1" parent="0" />
        <mxCell id="B6rONMkFjjqVBBVzJMFH-3" value="Locations" style="html=1;" parent="1" vertex="1">
          <mxGeometry x="120" y="160" width="110" height="50" as="geometry" />
        </mxCell>
        <mxCell id="B6rONMkFjjqVBBVzJMFH-4" value="&lt;u&gt;LocationID&lt;/u&gt;" style="ellipse;whiteSpace=wrap;html=1;" parent="1" vertex="1">
          <mxGeometry x="10" y="80" width="70" height="40" as="geometry" />
        </mxCell>
        <mxCell id="B6rONMkFjjqVBBVzJMFH-6" value="Type" style="ellipse;whiteSpace=wrap;html=1;" parent="1" vertex="1">
          <mxGeometry x="250" y="250" width="70" height="40" as="geometry" />
        </mxCell>
        <mxCell id="B6rONMkFjjqVBBVzJMFH-7" value="Web Address" style="ellipse;whiteSpace=wrap;html=1;" parent="1" vertex="1">
          <mxGeometry x="170" y="250" width="70" height="40" as="geometry" />
        </mxCell>
        <mxCell id="B6rONMkFjjqVBBVzJMFH-8" value="Phone Number" style="ellipse;whiteSpace=wrap;html=1;" parent="1" vertex="1">
          <mxGeometry x="90" y="250" width="70" height="40" as="geometry" />
        </mxCell>
        <mxCell id="B6rONMkFjjqVBBVzJMFH-9" value="Postal Code" style="ellipse;whiteSpace=wrap;html=1;" parent="1" vertex="1">
          <mxGeometry x="10" y="250" width="70" height="40" as="geometry" />
        </mxCell>
        <mxCell id="B6rONMkFjjqVBBVzJMFH-10" value="Province" style="ellipse;whiteSpace=wrap;html=1;" parent="1" vertex="1">
          <mxGeometry x="10" y="190" width="70" height="40" as="geometry" />
        </mxCell>
        <mxCell id="B6rONMkFjjqVBBVzJMFH-11" value="City" style="ellipse;whiteSpace=wrap;html=1;" parent="1" vertex="1">
          <mxGeometry x="10" y="140" width="70" height="40" as="geometry" />
        </mxCell>
        <mxCell id="B6rONMkFjjqVBBVzJMFH-12" value="Address" style="ellipse;whiteSpace=wrap;html=1;" parent="1" vertex="1">
          <mxGeometry x="170" y="80" width="70" height="40" as="geometry" />
        </mxCell>
        <mxCell id="B6rONMkFjjqVBBVzJMFH-13" value="Name" style="ellipse;whiteSpace=wrap;html=1;" parent="1" vertex="1">
          <mxGeometry x="90" y="80" width="70" height="40" as="geometry" />
        </mxCell>
        <mxCell id="B6rONMkFjjqVBBVzJMFH-14" value="General Manager" style="ellipse;whiteSpace=wrap;html=1;" parent="1" vertex="1">
          <mxGeometry x="330" y="80" width="70" height="40" as="geometry" />
        </mxCell>
        <mxCell id="B6rONMkFjjqVBBVzJMFH-15" value="Capacity" style="ellipse;whiteSpace=wrap;html=1;" parent="1" vertex="1">
          <mxGeometry x="250" y="80" width="70" height="40" as="geometry" />
        </mxCell>
        <mxCell id="B6rONMkFjjqVBBVzJMFH-16" value="" style="endArrow=none;html=1;rounded=0;entryX=0;entryY=0;entryDx=0;entryDy=0;exitX=1;exitY=1;exitDx=0;exitDy=0;" parent="1" source="B6rONMkFjjqVBBVzJMFH-4" target="B6rONMkFjjqVBBVzJMFH-3" edge="1">
          <mxGeometry width="50" height="50" relative="1" as="geometry">
            <mxPoint x="100" y="210" as="sourcePoint" />
            <mxPoint x="150" y="160" as="targetPoint" />
          </mxGeometry>
        </mxCell>
        <mxCell id="B6rONMkFjjqVBBVzJMFH-17" value="" style="endArrow=none;html=1;rounded=0;entryX=0.614;entryY=1.05;entryDx=0;entryDy=0;entryPerimeter=0;exitX=0.25;exitY=0;exitDx=0;exitDy=0;" parent="1" source="B6rONMkFjjqVBBVzJMFH-3" target="B6rONMkFjjqVBBVzJMFH-13" edge="1">
          <mxGeometry width="50" height="50" relative="1" as="geometry">
            <mxPoint x="190" y="180" as="sourcePoint" />
            <mxPoint x="240" y="130" as="targetPoint" />
          </mxGeometry>
        </mxCell>
        <mxCell id="B6rONMkFjjqVBBVzJMFH-18" value="" style="endArrow=none;html=1;rounded=0;entryX=0.371;entryY=0.975;entryDx=0;entryDy=0;entryPerimeter=0;exitX=0.5;exitY=0;exitDx=0;exitDy=0;" parent="1" source="B6rONMkFjjqVBBVzJMFH-3" target="B6rONMkFjjqVBBVzJMFH-12" edge="1">
          <mxGeometry width="50" height="50" relative="1" as="geometry">
            <mxPoint x="180" y="170" as="sourcePoint" />
            <mxPoint x="280" y="140" as="targetPoint" />
          </mxGeometry>
        </mxCell>
        <mxCell id="B6rONMkFjjqVBBVzJMFH-19" value="" style="endArrow=none;html=1;rounded=0;entryX=0.5;entryY=1;entryDx=0;entryDy=0;exitX=0.75;exitY=0;exitDx=0;exitDy=0;" parent="1" source="B6rONMkFjjqVBBVzJMFH-3" target="B6rONMkFjjqVBBVzJMFH-15" edge="1">
          <mxGeometry width="50" height="50" relative="1" as="geometry">
            <mxPoint x="260" y="200" as="sourcePoint" />
            <mxPoint x="310" y="150" as="targetPoint" />
          </mxGeometry>
        </mxCell>
        <mxCell id="B6rONMkFjjqVBBVzJMFH-20" value="" style="endArrow=none;html=1;rounded=0;entryX=0;entryY=1;entryDx=0;entryDy=0;exitX=1;exitY=0;exitDx=0;exitDy=0;" parent="1" source="B6rONMkFjjqVBBVzJMFH-3" target="B6rONMkFjjqVBBVzJMFH-14" edge="1">
          <mxGeometry width="50" height="50" relative="1" as="geometry">
            <mxPoint x="270" y="190" as="sourcePoint" />
            <mxPoint x="320" y="140" as="targetPoint" />
          </mxGeometry>
        </mxCell>
        <mxCell id="B6rONMkFjjqVBBVzJMFH-21" value="" style="endArrow=none;html=1;rounded=0;entryX=1;entryY=0.5;entryDx=0;entryDy=0;exitX=0;exitY=0.25;exitDx=0;exitDy=0;" parent="1" source="B6rONMkFjjqVBBVzJMFH-3" target="B6rONMkFjjqVBBVzJMFH-11" edge="1">
          <mxGeometry width="50" height="50" relative="1" as="geometry">
            <mxPoint x="70" y="360" as="sourcePoint" />
            <mxPoint x="120" y="310" as="targetPoint" />
          </mxGeometry>
        </mxCell>
        <mxCell id="B6rONMkFjjqVBBVzJMFH-22" value="" style="endArrow=none;html=1;rounded=0;entryX=1;entryY=0.5;entryDx=0;entryDy=0;exitX=0;exitY=0.5;exitDx=0;exitDy=0;" parent="1" source="B6rONMkFjjqVBBVzJMFH-3" target="B6rONMkFjjqVBBVzJMFH-10" edge="1">
          <mxGeometry width="50" height="50" relative="1" as="geometry">
            <mxPoint x="80" y="250" as="sourcePoint" />
            <mxPoint x="130" y="200" as="targetPoint" />
          </mxGeometry>
        </mxCell>
        <mxCell id="B6rONMkFjjqVBBVzJMFH-23" value="" style="endArrow=none;html=1;rounded=0;entryX=1;entryY=0;entryDx=0;entryDy=0;exitX=0;exitY=0.75;exitDx=0;exitDy=0;" parent="1" source="B6rONMkFjjqVBBVzJMFH-3" target="B6rONMkFjjqVBBVzJMFH-9" edge="1">
          <mxGeometry width="50" height="50" relative="1" as="geometry">
            <mxPoint x="110" y="270" as="sourcePoint" />
            <mxPoint x="160" y="220" as="targetPoint" />
          </mxGeometry>
        </mxCell>
        <mxCell id="B6rONMkFjjqVBBVzJMFH-24" value="" style="endArrow=none;html=1;rounded=0;entryX=0.25;entryY=1;entryDx=0;entryDy=0;exitX=0.5;exitY=0;exitDx=0;exitDy=0;" parent="1" source="B6rONMkFjjqVBBVzJMFH-8" target="B6rONMkFjjqVBBVzJMFH-3" edge="1">
          <mxGeometry width="50" height="50" relative="1" as="geometry">
            <mxPoint x="140" y="270" as="sourcePoint" />
            <mxPoint x="190" y="220" as="targetPoint" />
          </mxGeometry>
        </mxCell>
        <mxCell id="B6rONMkFjjqVBBVzJMFH-25" value="" style="endArrow=none;html=1;rounded=0;entryX=0.5;entryY=1;entryDx=0;entryDy=0;exitX=0.5;exitY=0;exitDx=0;exitDy=0;" parent="1" source="B6rONMkFjjqVBBVzJMFH-7" target="B6rONMkFjjqVBBVzJMFH-3" edge="1">
          <mxGeometry width="50" height="50" relative="1" as="geometry">
            <mxPoint x="190" y="270" as="sourcePoint" />
            <mxPoint x="240" y="220" as="targetPoint" />
          </mxGeometry>
        </mxCell>
        <mxCell id="B6rONMkFjjqVBBVzJMFH-26" value="" style="endArrow=none;html=1;rounded=0;entryX=0.75;entryY=1;entryDx=0;entryDy=0;exitX=0;exitY=0;exitDx=0;exitDy=0;" parent="1" source="B6rONMkFjjqVBBVzJMFH-6" target="B6rONMkFjjqVBBVzJMFH-3" edge="1">
          <mxGeometry width="50" height="50" relative="1" as="geometry">
            <mxPoint x="250" y="250" as="sourcePoint" />
            <mxPoint x="300" y="200" as="targetPoint" />
          </mxGeometry>
        </mxCell>
        <mxCell id="B6rONMkFjjqVBBVzJMFH-30" value="ClubMembers" style="html=1;" parent="1" vertex="1">
          <mxGeometry x="410" y="450" width="110" height="50" as="geometry" />
        </mxCell>
        <mxCell id="B6rONMkFjjqVBBVzJMFH-31" value="City" style="ellipse;whiteSpace=wrap;html=1;" parent="1" vertex="1">
          <mxGeometry x="230" y="420" width="70" height="40" as="geometry" />
        </mxCell>
        <mxCell id="B6rONMkFjjqVBBVzJMFH-32" value="First Name" style="ellipse;whiteSpace=wrap;html=1;" parent="1" vertex="1">
          <mxGeometry x="420" y="560" width="70" height="40" as="geometry" />
        </mxCell>
        <mxCell id="B6rONMkFjjqVBBVzJMFH-33" value="Last Name" style="ellipse;whiteSpace=wrap;html=1;" parent="1" vertex="1">
          <mxGeometry x="340" y="560" width="70" height="40" as="geometry" />
        </mxCell>
        <mxCell id="B6rONMkFjjqVBBVzJMFH-34" value="Birth Date" style="ellipse;whiteSpace=wrap;html=1;" parent="1" vertex="1">
          <mxGeometry x="260" y="560" width="70" height="40" as="geometry" />
        </mxCell>
        <mxCell id="B6rONMkFjjqVBBVzJMFH-35" value="SSN" style="ellipse;whiteSpace=wrap;html=1;" parent="1" vertex="1">
          <mxGeometry x="190" y="560" width="70" height="40" as="geometry" />
        </mxCell>
        <mxCell id="B6rONMkFjjqVBBVzJMFH-36" value="Medicare" style="ellipse;whiteSpace=wrap;html=1;" parent="1" vertex="1">
          <mxGeometry x="230" y="500" width="70" height="40" as="geometry" />
        </mxCell>
        <mxCell id="B6rONMkFjjqVBBVzJMFH-37" value="Phone Number" style="ellipse;whiteSpace=wrap;html=1;" parent="1" vertex="1">
          <mxGeometry x="230" y="460" width="70" height="40" as="geometry" />
        </mxCell>
        <mxCell id="B6rONMkFjjqVBBVzJMFH-38" value="Address" style="ellipse;whiteSpace=wrap;html=1;" parent="1" vertex="1">
          <mxGeometry x="600" y="550" width="70" height="40" as="geometry" />
        </mxCell>
        <mxCell id="B6rONMkFjjqVBBVzJMFH-39" value="Province" style="ellipse;whiteSpace=wrap;html=1;" parent="1" vertex="1">
          <mxGeometry x="510" y="560" width="70" height="40" as="geometry" />
        </mxCell>
        <mxCell id="B6rONMkFjjqVBBVzJMFH-40" value="&lt;u&gt;ClubMemberID&lt;/u&gt;" style="ellipse;whiteSpace=wrap;html=1;" parent="1" vertex="1">
          <mxGeometry x="600" y="440" width="90" height="40" as="geometry" />
        </mxCell>
        <mxCell id="B6rONMkFjjqVBBVzJMFH-41" value="Postal Code" style="ellipse;whiteSpace=wrap;html=1;" parent="1" vertex="1">
          <mxGeometry x="600" y="500" width="70" height="40" as="geometry" />
        </mxCell>
        <mxCell id="B6rONMkFjjqVBBVzJMFH-42" value="" style="endArrow=none;html=1;rounded=0;entryX=0;entryY=0;entryDx=0;entryDy=0;exitX=1;exitY=0.5;exitDx=0;exitDy=0;" parent="1" source="B6rONMkFjjqVBBVzJMFH-31" target="B6rONMkFjjqVBBVzJMFH-30" edge="1">
          <mxGeometry width="50" height="50" relative="1" as="geometry">
            <mxPoint x="140" y="500" as="sourcePoint" />
            <mxPoint x="190" y="450" as="targetPoint" />
          </mxGeometry>
        </mxCell>
        <mxCell id="B6rONMkFjjqVBBVzJMFH-43" value="" style="endArrow=none;html=1;rounded=0;entryX=0.5;entryY=0;entryDx=0;entryDy=0;exitX=0.75;exitY=1;exitDx=0;exitDy=0;" parent="1" source="B6rONMkFjjqVBBVzJMFH-30" target="B6rONMkFjjqVBBVzJMFH-39" edge="1">
          <mxGeometry width="50" height="50" relative="1" as="geometry">
            <mxPoint x="230" y="470" as="sourcePoint" />
            <mxPoint x="280" y="420" as="targetPoint" />
          </mxGeometry>
        </mxCell>
        <mxCell id="B6rONMkFjjqVBBVzJMFH-44" value="" style="endArrow=none;html=1;rounded=0;entryX=0;entryY=0;entryDx=0;entryDy=0;exitX=1;exitY=0.75;exitDx=0;exitDy=0;" parent="1" source="B6rONMkFjjqVBBVzJMFH-30" target="B6rONMkFjjqVBBVzJMFH-38" edge="1">
          <mxGeometry width="50" height="50" relative="1" as="geometry">
            <mxPoint x="220" y="460" as="sourcePoint" />
            <mxPoint x="320" y="430" as="targetPoint" />
          </mxGeometry>
        </mxCell>
        <mxCell id="B6rONMkFjjqVBBVzJMFH-45" value="" style="endArrow=none;html=1;rounded=0;entryX=0;entryY=0;entryDx=0;entryDy=0;exitX=1;exitY=0.5;exitDx=0;exitDy=0;" parent="1" source="B6rONMkFjjqVBBVzJMFH-30" target="B6rONMkFjjqVBBVzJMFH-41" edge="1">
          <mxGeometry width="50" height="50" relative="1" as="geometry">
            <mxPoint x="300" y="490" as="sourcePoint" />
            <mxPoint x="350" y="440" as="targetPoint" />
          </mxGeometry>
        </mxCell>
        <mxCell id="B6rONMkFjjqVBBVzJMFH-46" value="" style="endArrow=none;html=1;rounded=0;entryX=0;entryY=1;entryDx=0;entryDy=0;exitX=1;exitY=0.25;exitDx=0;exitDy=0;" parent="1" source="B6rONMkFjjqVBBVzJMFH-30" target="B6rONMkFjjqVBBVzJMFH-40" edge="1">
          <mxGeometry width="50" height="50" relative="1" as="geometry">
            <mxPoint x="310" y="480" as="sourcePoint" />
            <mxPoint x="360" y="430" as="targetPoint" />
          </mxGeometry>
        </mxCell>
        <mxCell id="B6rONMkFjjqVBBVzJMFH-47" value="" style="endArrow=none;html=1;rounded=0;entryX=1;entryY=0.5;entryDx=0;entryDy=0;exitX=0;exitY=0.25;exitDx=0;exitDy=0;" parent="1" source="B6rONMkFjjqVBBVzJMFH-30" target="B6rONMkFjjqVBBVzJMFH-37" edge="1">
          <mxGeometry width="50" height="50" relative="1" as="geometry">
            <mxPoint x="110" y="650" as="sourcePoint" />
            <mxPoint x="160" y="600" as="targetPoint" />
          </mxGeometry>
        </mxCell>
        <mxCell id="B6rONMkFjjqVBBVzJMFH-48" value="" style="endArrow=none;html=1;rounded=0;entryX=1;entryY=0.5;entryDx=0;entryDy=0;exitX=0;exitY=0.5;exitDx=0;exitDy=0;" parent="1" source="B6rONMkFjjqVBBVzJMFH-30" target="B6rONMkFjjqVBBVzJMFH-36" edge="1">
          <mxGeometry width="50" height="50" relative="1" as="geometry">
            <mxPoint x="120" y="540" as="sourcePoint" />
            <mxPoint x="170" y="490" as="targetPoint" />
          </mxGeometry>
        </mxCell>
        <mxCell id="B6rONMkFjjqVBBVzJMFH-49" value="" style="endArrow=none;html=1;rounded=0;entryX=1;entryY=0;entryDx=0;entryDy=0;exitX=0;exitY=0.75;exitDx=0;exitDy=0;" parent="1" source="B6rONMkFjjqVBBVzJMFH-30" target="B6rONMkFjjqVBBVzJMFH-35" edge="1">
          <mxGeometry width="50" height="50" relative="1" as="geometry">
            <mxPoint x="150" y="560" as="sourcePoint" />
            <mxPoint x="200" y="510" as="targetPoint" />
          </mxGeometry>
        </mxCell>
        <mxCell id="B6rONMkFjjqVBBVzJMFH-50" value="" style="endArrow=none;html=1;rounded=0;entryX=0.25;entryY=1;entryDx=0;entryDy=0;exitX=0.5;exitY=0;exitDx=0;exitDy=0;" parent="1" source="B6rONMkFjjqVBBVzJMFH-34" target="B6rONMkFjjqVBBVzJMFH-30" edge="1">
          <mxGeometry width="50" height="50" relative="1" as="geometry">
            <mxPoint x="180" y="560" as="sourcePoint" />
            <mxPoint x="230" y="510" as="targetPoint" />
          </mxGeometry>
        </mxCell>
        <mxCell id="B6rONMkFjjqVBBVzJMFH-51" value="" style="endArrow=none;html=1;rounded=0;entryX=0.5;entryY=1;entryDx=0;entryDy=0;exitX=0.5;exitY=0;exitDx=0;exitDy=0;" parent="1" source="B6rONMkFjjqVBBVzJMFH-33" target="B6rONMkFjjqVBBVzJMFH-30" edge="1">
          <mxGeometry width="50" height="50" relative="1" as="geometry">
            <mxPoint x="230" y="560" as="sourcePoint" />
            <mxPoint x="280" y="510" as="targetPoint" />
          </mxGeometry>
        </mxCell>
        <mxCell id="B6rONMkFjjqVBBVzJMFH-52" value="" style="endArrow=none;html=1;rounded=0;entryX=0.75;entryY=1;entryDx=0;entryDy=0;exitX=0;exitY=0;exitDx=0;exitDy=0;" parent="1" source="B6rONMkFjjqVBBVzJMFH-32" target="B6rONMkFjjqVBBVzJMFH-30" edge="1">
          <mxGeometry width="50" height="50" relative="1" as="geometry">
            <mxPoint x="290" y="540" as="sourcePoint" />
            <mxPoint x="340" y="490" as="targetPoint" />
          </mxGeometry>
        </mxCell>
        <mxCell id="B6rONMkFjjqVBBVzJMFH-54" value="FamilyMembers" style="html=1;" parent="1" vertex="1">
          <mxGeometry x="1000" y="100" width="110" height="50" as="geometry" />
        </mxCell>
        <mxCell id="B6rONMkFjjqVBBVzJMFH-55" value="City" style="ellipse;whiteSpace=wrap;html=1;" parent="1" vertex="1">
          <mxGeometry x="1170" width="70" height="40" as="geometry" />
        </mxCell>
        <mxCell id="B6rONMkFjjqVBBVzJMFH-56" value="First Name" style="ellipse;whiteSpace=wrap;html=1;" parent="1" vertex="1">
          <mxGeometry x="1120" y="180" width="70" height="40" as="geometry" />
        </mxCell>
        <mxCell id="B6rONMkFjjqVBBVzJMFH-57" value="Last Name" style="ellipse;whiteSpace=wrap;html=1;" parent="1" vertex="1">
          <mxGeometry x="1040" y="180" width="70" height="40" as="geometry" />
        </mxCell>
        <mxCell id="B6rONMkFjjqVBBVzJMFH-58" value="Birth Date" style="ellipse;whiteSpace=wrap;html=1;" parent="1" vertex="1">
          <mxGeometry x="970" y="180" width="70" height="40" as="geometry" />
        </mxCell>
        <mxCell id="B6rONMkFjjqVBBVzJMFH-59" value="&lt;u&gt;SSN&lt;/u&gt;" style="ellipse;whiteSpace=wrap;html=1;" parent="1" vertex="1">
          <mxGeometry x="900" y="50" width="70" height="40" as="geometry" />
        </mxCell>
        <mxCell id="B6rONMkFjjqVBBVzJMFH-60" value="Medicare" style="ellipse;whiteSpace=wrap;html=1;" parent="1" vertex="1">
          <mxGeometry x="910" width="70" height="40" as="geometry" />
        </mxCell>
        <mxCell id="B6rONMkFjjqVBBVzJMFH-61" value="Phone Number" style="ellipse;whiteSpace=wrap;html=1;" parent="1" vertex="1">
          <mxGeometry x="1000" width="70" height="40" as="geometry" />
        </mxCell>
        <mxCell id="B6rONMkFjjqVBBVzJMFH-62" value="Address" style="ellipse;whiteSpace=wrap;html=1;" parent="1" vertex="1">
          <mxGeometry x="1080" width="70" height="40" as="geometry" />
        </mxCell>
        <mxCell id="B6rONMkFjjqVBBVzJMFH-63" value="Province" style="ellipse;whiteSpace=wrap;html=1;" parent="1" vertex="1">
          <mxGeometry x="1170" y="105" width="70" height="40" as="geometry" />
        </mxCell>
        <mxCell id="B6rONMkFjjqVBBVzJMFH-64" value="Email Address" style="ellipse;whiteSpace=wrap;html=1;" parent="1" vertex="1">
          <mxGeometry x="1180" y="50" width="90" height="40" as="geometry" />
        </mxCell>
        <mxCell id="B6rONMkFjjqVBBVzJMFH-65" value="Postal Code" style="ellipse;whiteSpace=wrap;html=1;" parent="1" vertex="1">
          <mxGeometry x="1200" y="160" width="70" height="40" as="geometry" />
        </mxCell>
        <mxCell id="B6rONMkFjjqVBBVzJMFH-66" value="" style="endArrow=none;html=1;rounded=0;exitX=0;exitY=1;exitDx=0;exitDy=0;" parent="1" source="B6rONMkFjjqVBBVzJMFH-55" edge="1">
          <mxGeometry width="50" height="50" relative="1" as="geometry">
            <mxPoint x="700" y="300" as="sourcePoint" />
            <mxPoint x="1110" y="100" as="targetPoint" />
          </mxGeometry>
        </mxCell>
        <mxCell id="B6rONMkFjjqVBBVzJMFH-67" value="" style="endArrow=none;html=1;rounded=0;entryX=0.043;entryY=0.3;entryDx=0;entryDy=0;exitX=1;exitY=0.5;exitDx=0;exitDy=0;entryPerimeter=0;" parent="1" source="B6rONMkFjjqVBBVzJMFH-54" target="B6rONMkFjjqVBBVzJMFH-63" edge="1">
          <mxGeometry width="50" height="50" relative="1" as="geometry">
            <mxPoint x="790" y="270" as="sourcePoint" />
            <mxPoint x="840" y="220" as="targetPoint" />
          </mxGeometry>
        </mxCell>
        <mxCell id="B6rONMkFjjqVBBVzJMFH-68" value="" style="endArrow=none;html=1;rounded=0;entryX=0.5;entryY=1;entryDx=0;entryDy=0;exitX=0.75;exitY=0;exitDx=0;exitDy=0;" parent="1" source="B6rONMkFjjqVBBVzJMFH-54" target="B6rONMkFjjqVBBVzJMFH-62" edge="1">
          <mxGeometry width="50" height="50" relative="1" as="geometry">
            <mxPoint x="780" y="260" as="sourcePoint" />
            <mxPoint x="880" y="230" as="targetPoint" />
          </mxGeometry>
        </mxCell>
        <mxCell id="B6rONMkFjjqVBBVzJMFH-69" value="" style="endArrow=none;html=1;rounded=0;entryX=0;entryY=0;entryDx=0;entryDy=0;exitX=1;exitY=0.5;exitDx=0;exitDy=0;" parent="1" source="B6rONMkFjjqVBBVzJMFH-54" target="B6rONMkFjjqVBBVzJMFH-65" edge="1">
          <mxGeometry width="50" height="50" relative="1" as="geometry">
            <mxPoint x="860" y="290" as="sourcePoint" />
            <mxPoint x="910" y="240" as="targetPoint" />
          </mxGeometry>
        </mxCell>
        <mxCell id="B6rONMkFjjqVBBVzJMFH-70" value="" style="endArrow=none;html=1;rounded=0;entryX=0;entryY=1;entryDx=0;entryDy=0;exitX=1;exitY=0.25;exitDx=0;exitDy=0;" parent="1" source="B6rONMkFjjqVBBVzJMFH-54" target="B6rONMkFjjqVBBVzJMFH-64" edge="1">
          <mxGeometry width="50" height="50" relative="1" as="geometry">
            <mxPoint x="870" y="280" as="sourcePoint" />
            <mxPoint x="920" y="230" as="targetPoint" />
          </mxGeometry>
        </mxCell>
        <mxCell id="B6rONMkFjjqVBBVzJMFH-71" value="" style="endArrow=none;html=1;rounded=0;entryX=0.5;entryY=1;entryDx=0;entryDy=0;exitX=0.5;exitY=0;exitDx=0;exitDy=0;" parent="1" source="B6rONMkFjjqVBBVzJMFH-54" target="B6rONMkFjjqVBBVzJMFH-61" edge="1">
          <mxGeometry width="50" height="50" relative="1" as="geometry">
            <mxPoint x="670" y="450" as="sourcePoint" />
            <mxPoint x="720" y="400" as="targetPoint" />
          </mxGeometry>
        </mxCell>
        <mxCell id="B6rONMkFjjqVBBVzJMFH-72" value="" style="endArrow=none;html=1;rounded=0;entryX=1;entryY=0.5;entryDx=0;entryDy=0;exitX=0.25;exitY=0;exitDx=0;exitDy=0;" parent="1" source="B6rONMkFjjqVBBVzJMFH-54" target="B6rONMkFjjqVBBVzJMFH-60" edge="1">
          <mxGeometry width="50" height="50" relative="1" as="geometry">
            <mxPoint x="680" y="340" as="sourcePoint" />
            <mxPoint x="730" y="290" as="targetPoint" />
          </mxGeometry>
        </mxCell>
        <mxCell id="B6rONMkFjjqVBBVzJMFH-73" value="" style="endArrow=none;html=1;rounded=0;entryX=1;entryY=0.5;entryDx=0;entryDy=0;exitX=0;exitY=0;exitDx=0;exitDy=0;" parent="1" source="B6rONMkFjjqVBBVzJMFH-54" target="B6rONMkFjjqVBBVzJMFH-59" edge="1">
          <mxGeometry width="50" height="50" relative="1" as="geometry">
            <mxPoint x="710" y="360" as="sourcePoint" />
            <mxPoint x="760" y="310" as="targetPoint" />
          </mxGeometry>
        </mxCell>
        <mxCell id="B6rONMkFjjqVBBVzJMFH-74" value="" style="endArrow=none;html=1;rounded=0;entryX=0.25;entryY=1;entryDx=0;entryDy=0;exitX=0.5;exitY=0;exitDx=0;exitDy=0;" parent="1" source="B6rONMkFjjqVBBVzJMFH-58" target="B6rONMkFjjqVBBVzJMFH-54" edge="1">
          <mxGeometry width="50" height="50" relative="1" as="geometry">
            <mxPoint x="740" y="360" as="sourcePoint" />
            <mxPoint x="790" y="310" as="targetPoint" />
          </mxGeometry>
        </mxCell>
        <mxCell id="B6rONMkFjjqVBBVzJMFH-75" value="" style="endArrow=none;html=1;rounded=0;entryX=0.5;entryY=1;entryDx=0;entryDy=0;exitX=0.5;exitY=0;exitDx=0;exitDy=0;" parent="1" source="B6rONMkFjjqVBBVzJMFH-57" target="B6rONMkFjjqVBBVzJMFH-54" edge="1">
          <mxGeometry width="50" height="50" relative="1" as="geometry">
            <mxPoint x="790" y="360" as="sourcePoint" />
            <mxPoint x="840" y="310" as="targetPoint" />
          </mxGeometry>
        </mxCell>
        <mxCell id="B6rONMkFjjqVBBVzJMFH-76" value="" style="endArrow=none;html=1;rounded=0;entryX=0.75;entryY=1;entryDx=0;entryDy=0;exitX=0;exitY=0;exitDx=0;exitDy=0;" parent="1" source="B6rONMkFjjqVBBVzJMFH-56" target="B6rONMkFjjqVBBVzJMFH-54" edge="1">
          <mxGeometry width="50" height="50" relative="1" as="geometry">
            <mxPoint x="850" y="340" as="sourcePoint" />
            <mxPoint x="900" y="290" as="targetPoint" />
          </mxGeometry>
        </mxCell>
        <mxCell id="B6rONMkFjjqVBBVzJMFH-77" value="Personnels" style="html=1;" parent="1" vertex="1">
          <mxGeometry x="1230" y="490" width="110" height="50" as="geometry" />
        </mxCell>
        <mxCell id="B6rONMkFjjqVBBVzJMFH-78" value="City" style="ellipse;whiteSpace=wrap;html=1;" parent="1" vertex="1">
          <mxGeometry x="1300" y="420" width="70" height="40" as="geometry" />
        </mxCell>
        <mxCell id="B6rONMkFjjqVBBVzJMFH-79" value="First Name" style="ellipse;whiteSpace=wrap;html=1;" parent="1" vertex="1">
          <mxGeometry x="1390" y="600" width="70" height="40" as="geometry" />
        </mxCell>
        <mxCell id="B6rONMkFjjqVBBVzJMFH-80" value="Last Name" style="ellipse;whiteSpace=wrap;html=1;" parent="1" vertex="1">
          <mxGeometry x="1310" y="610" width="70" height="40" as="geometry" />
        </mxCell>
        <mxCell id="B6rONMkFjjqVBBVzJMFH-81" value="Birth Date" style="ellipse;whiteSpace=wrap;html=1;" parent="1" vertex="1">
          <mxGeometry x="1220" y="600" width="70" height="40" as="geometry" />
        </mxCell>
        <mxCell id="B6rONMkFjjqVBBVzJMFH-82" value="&lt;u&gt;SSN&lt;/u&gt;" style="ellipse;whiteSpace=wrap;html=1;" parent="1" vertex="1">
          <mxGeometry x="1130" y="580" width="70" height="40" as="geometry" />
        </mxCell>
        <mxCell id="B6rONMkFjjqVBBVzJMFH-83" value="Medicare" style="ellipse;whiteSpace=wrap;html=1;" parent="1" vertex="1">
          <mxGeometry x="1470" y="495" width="70" height="40" as="geometry" />
        </mxCell>
        <mxCell id="B6rONMkFjjqVBBVzJMFH-84" value="Phone Number" style="ellipse;whiteSpace=wrap;html=1;" parent="1" vertex="1">
          <mxGeometry x="1120" y="430" width="70" height="40" as="geometry" />
        </mxCell>
        <mxCell id="B6rONMkFjjqVBBVzJMFH-85" value="Address" style="ellipse;whiteSpace=wrap;html=1;" parent="1" vertex="1">
          <mxGeometry x="1210" y="420" width="70" height="40" as="geometry" />
        </mxCell>
        <mxCell id="B6rONMkFjjqVBBVzJMFH-86" value="Province" style="ellipse;whiteSpace=wrap;html=1;" parent="1" vertex="1">
          <mxGeometry x="1390" y="420" width="70" height="40" as="geometry" />
        </mxCell>
        <mxCell id="B6rONMkFjjqVBBVzJMFH-87" value="Email Address" style="ellipse;whiteSpace=wrap;html=1;" parent="1" vertex="1">
          <mxGeometry x="1490" y="600" width="90" height="40" as="geometry" />
        </mxCell>
        <mxCell id="B6rONMkFjjqVBBVzJMFH-88" value="Postal Code" style="ellipse;whiteSpace=wrap;html=1;" parent="1" vertex="1">
          <mxGeometry x="1390" y="470" width="70" height="40" as="geometry" />
        </mxCell>
        <mxCell id="B6rONMkFjjqVBBVzJMFH-89" value="" style="endArrow=none;html=1;rounded=0;entryX=0.5;entryY=0;entryDx=0;entryDy=0;exitX=0.314;exitY=0.975;exitDx=0;exitDy=0;exitPerimeter=0;" parent="1" source="B6rONMkFjjqVBBVzJMFH-78" target="B6rONMkFjjqVBBVzJMFH-77" edge="1">
          <mxGeometry width="50" height="50" relative="1" as="geometry">
            <mxPoint x="640" y="930" as="sourcePoint" />
            <mxPoint x="690" y="880" as="targetPoint" />
          </mxGeometry>
        </mxCell>
        <mxCell id="B6rONMkFjjqVBBVzJMFH-90" value="" style="endArrow=none;html=1;rounded=0;entryX=0;entryY=0.5;entryDx=0;entryDy=0;exitX=0.75;exitY=0;exitDx=0;exitDy=0;" parent="1" source="B6rONMkFjjqVBBVzJMFH-77" target="B6rONMkFjjqVBBVzJMFH-86" edge="1">
          <mxGeometry width="50" height="50" relative="1" as="geometry">
            <mxPoint x="730" y="900" as="sourcePoint" />
            <mxPoint x="780" y="850" as="targetPoint" />
          </mxGeometry>
        </mxCell>
        <mxCell id="B6rONMkFjjqVBBVzJMFH-91" value="" style="endArrow=none;html=1;rounded=0;entryX=0.5;entryY=1;entryDx=0;entryDy=0;exitX=0.25;exitY=0;exitDx=0;exitDy=0;" parent="1" source="B6rONMkFjjqVBBVzJMFH-77" target="B6rONMkFjjqVBBVzJMFH-85" edge="1">
          <mxGeometry width="50" height="50" relative="1" as="geometry">
            <mxPoint x="720" y="890" as="sourcePoint" />
            <mxPoint x="820" y="860" as="targetPoint" />
          </mxGeometry>
        </mxCell>
        <mxCell id="B6rONMkFjjqVBBVzJMFH-92" value="" style="endArrow=none;html=1;rounded=0;entryX=0;entryY=0.5;entryDx=0;entryDy=0;exitX=1;exitY=0.25;exitDx=0;exitDy=0;" parent="1" source="B6rONMkFjjqVBBVzJMFH-77" target="B6rONMkFjjqVBBVzJMFH-88" edge="1">
          <mxGeometry width="50" height="50" relative="1" as="geometry">
            <mxPoint x="800" y="920" as="sourcePoint" />
            <mxPoint x="850" y="870" as="targetPoint" />
          </mxGeometry>
        </mxCell>
        <mxCell id="B6rONMkFjjqVBBVzJMFH-93" value="" style="endArrow=none;html=1;rounded=0;entryX=0;entryY=0.5;entryDx=0;entryDy=0;exitX=1;exitY=1;exitDx=0;exitDy=0;" parent="1" source="B6rONMkFjjqVBBVzJMFH-77" target="B6rONMkFjjqVBBVzJMFH-87" edge="1">
          <mxGeometry width="50" height="50" relative="1" as="geometry">
            <mxPoint x="810" y="910" as="sourcePoint" />
            <mxPoint x="860" y="860" as="targetPoint" />
          </mxGeometry>
        </mxCell>
        <mxCell id="B6rONMkFjjqVBBVzJMFH-94" value="" style="endArrow=none;html=1;rounded=0;entryX=1;entryY=0.5;entryDx=0;entryDy=0;exitX=0;exitY=0.25;exitDx=0;exitDy=0;" parent="1" source="B6rONMkFjjqVBBVzJMFH-77" target="B6rONMkFjjqVBBVzJMFH-84" edge="1">
          <mxGeometry width="50" height="50" relative="1" as="geometry">
            <mxPoint x="610" y="1080" as="sourcePoint" />
            <mxPoint x="660" y="1030" as="targetPoint" />
          </mxGeometry>
        </mxCell>
        <mxCell id="B6rONMkFjjqVBBVzJMFH-95" value="" style="endArrow=none;html=1;rounded=0;entryX=0;entryY=0.5;entryDx=0;entryDy=0;exitX=1;exitY=0.5;exitDx=0;exitDy=0;" parent="1" source="B6rONMkFjjqVBBVzJMFH-77" target="B6rONMkFjjqVBBVzJMFH-83" edge="1">
          <mxGeometry width="50" height="50" relative="1" as="geometry">
            <mxPoint x="620" y="970" as="sourcePoint" />
            <mxPoint x="670" y="920" as="targetPoint" />
          </mxGeometry>
        </mxCell>
        <mxCell id="B6rONMkFjjqVBBVzJMFH-96" value="" style="endArrow=none;html=1;rounded=0;entryX=1;entryY=0;entryDx=0;entryDy=0;exitX=0;exitY=0.75;exitDx=0;exitDy=0;" parent="1" source="B6rONMkFjjqVBBVzJMFH-77" target="B6rONMkFjjqVBBVzJMFH-82" edge="1">
          <mxGeometry width="50" height="50" relative="1" as="geometry">
            <mxPoint x="650" y="990" as="sourcePoint" />
            <mxPoint x="700" y="940" as="targetPoint" />
          </mxGeometry>
        </mxCell>
        <mxCell id="B6rONMkFjjqVBBVzJMFH-97" value="" style="endArrow=none;html=1;rounded=0;entryX=0.25;entryY=1;entryDx=0;entryDy=0;exitX=0.5;exitY=0;exitDx=0;exitDy=0;" parent="1" source="B6rONMkFjjqVBBVzJMFH-81" target="B6rONMkFjjqVBBVzJMFH-77" edge="1">
          <mxGeometry width="50" height="50" relative="1" as="geometry">
            <mxPoint x="680" y="990" as="sourcePoint" />
            <mxPoint x="730" y="940" as="targetPoint" />
          </mxGeometry>
        </mxCell>
        <mxCell id="B6rONMkFjjqVBBVzJMFH-98" value="" style="endArrow=none;html=1;rounded=0;entryX=0.5;entryY=1;entryDx=0;entryDy=0;exitX=0.5;exitY=0;exitDx=0;exitDy=0;" parent="1" source="B6rONMkFjjqVBBVzJMFH-80" target="B6rONMkFjjqVBBVzJMFH-77" edge="1">
          <mxGeometry width="50" height="50" relative="1" as="geometry">
            <mxPoint x="730" y="990" as="sourcePoint" />
            <mxPoint x="780" y="940" as="targetPoint" />
          </mxGeometry>
        </mxCell>
        <mxCell id="B6rONMkFjjqVBBVzJMFH-99" value="" style="endArrow=none;html=1;rounded=0;entryX=0.75;entryY=1;entryDx=0;entryDy=0;exitX=0;exitY=0;exitDx=0;exitDy=0;" parent="1" source="B6rONMkFjjqVBBVzJMFH-79" target="B6rONMkFjjqVBBVzJMFH-77" edge="1">
          <mxGeometry width="50" height="50" relative="1" as="geometry">
            <mxPoint x="790" y="970" as="sourcePoint" />
            <mxPoint x="840" y="920" as="targetPoint" />
          </mxGeometry>
        </mxCell>
        <mxCell id="B6rONMkFjjqVBBVzJMFH-100" value="Personnel Role" style="ellipse;whiteSpace=wrap;html=1;" parent="1" vertex="1">
          <mxGeometry x="1550" y="520" width="90" height="40" as="geometry" />
        </mxCell>
        <mxCell id="B6rONMkFjjqVBBVzJMFH-101" value="" style="endArrow=none;html=1;rounded=0;entryX=0;entryY=0.5;entryDx=0;entryDy=0;exitX=1;exitY=0.75;exitDx=0;exitDy=0;" parent="1" source="B6rONMkFjjqVBBVzJMFH-77" target="B6rONMkFjjqVBBVzJMFH-100" edge="1">
          <mxGeometry width="50" height="50" relative="1" as="geometry">
            <mxPoint x="1470" y="740" as="sourcePoint" />
            <mxPoint x="1520" y="690" as="targetPoint" />
          </mxGeometry>
        </mxCell>
        <mxCell id="B6rONMkFjjqVBBVzJMFH-103" value="Mandate" style="ellipse;whiteSpace=wrap;html=1;" parent="1" vertex="1">
          <mxGeometry x="1560" y="570" width="90" height="40" as="geometry" />
        </mxCell>
        <mxCell id="B6rONMkFjjqVBBVzJMFH-104" value="" style="endArrow=none;html=1;rounded=0;entryX=0;entryY=0.5;entryDx=0;entryDy=0;exitX=1;exitY=1;exitDx=0;exitDy=0;" parent="1" source="B6rONMkFjjqVBBVzJMFH-77" target="B6rONMkFjjqVBBVzJMFH-103" edge="1">
          <mxGeometry width="50" height="50" relative="1" as="geometry">
            <mxPoint x="1460" y="600" as="sourcePoint" />
            <mxPoint x="1510" y="550" as="targetPoint" />
          </mxGeometry>
        </mxCell>
        <mxCell id="B6rONMkFjjqVBBVzJMFH-105" value="MemberOf" style="rhombus;whiteSpace=wrap;html=1;" parent="1" vertex="1">
          <mxGeometry x="370" y="320" width="90" height="80" as="geometry" />
        </mxCell>
        <mxCell id="B6rONMkFjjqVBBVzJMFH-106" value="WorksAt" style="rhombus;whiteSpace=wrap;html=1;" parent="1" vertex="1">
          <mxGeometry x="630" y="290" width="110" height="80" as="geometry" />
        </mxCell>
        <mxCell id="B6rONMkFjjqVBBVzJMFH-107" value="Enrolls" style="rhombus;whiteSpace=wrap;html=1;" parent="1" vertex="1">
          <mxGeometry x="460" y="225" width="90" height="80" as="geometry" />
        </mxCell>
        <mxCell id="B6rONMkFjjqVBBVzJMFH-108" value="RegisteredIn" style="rhombus;whiteSpace=wrap;html=1;" parent="1" vertex="1">
          <mxGeometry x="785" y="85" width="115" height="80" as="geometry" />
        </mxCell>
        <mxCell id="B6rONMkFjjqVBBVzJMFH-109" value="" style="endArrow=none;html=1;rounded=0;entryX=0.5;entryY=0;entryDx=0;entryDy=0;" parent="1" source="B6rONMkFjjqVBBVzJMFH-105" target="B6rONMkFjjqVBBVzJMFH-30" edge="1">
          <mxGeometry width="50" height="50" relative="1" as="geometry">
            <mxPoint x="220" y="350" as="sourcePoint" />
            <mxPoint x="270" y="300" as="targetPoint" />
          </mxGeometry>
        </mxCell>
        <mxCell id="B6rONMkFjjqVBBVzJMFH-110" value="" style="endArrow=none;html=1;rounded=0;entryX=0.5;entryY=0;entryDx=0;entryDy=0;exitX=1;exitY=0.5;exitDx=0;exitDy=0;" parent="1" source="B6rONMkFjjqVBBVzJMFH-3" target="B6rONMkFjjqVBBVzJMFH-105" edge="1">
          <mxGeometry width="50" height="50" relative="1" as="geometry">
            <mxPoint x="220" y="350" as="sourcePoint" />
            <mxPoint x="270" y="300" as="targetPoint" />
            <Array as="points">
              <mxPoint x="370" y="240" />
            </Array>
          </mxGeometry>
        </mxCell>
        <mxCell id="B6rONMkFjjqVBBVzJMFH-112" value="" style="endArrow=none;html=1;rounded=0;entryX=0;entryY=0.5;entryDx=0;entryDy=0;exitX=1;exitY=0.5;exitDx=0;exitDy=0;" parent="1" source="B6rONMkFjjqVBBVzJMFH-108" target="B6rONMkFjjqVBBVzJMFH-54" edge="1">
          <mxGeometry width="50" height="50" relative="1" as="geometry">
            <mxPoint x="930" y="180" as="sourcePoint" />
            <mxPoint x="980" y="130" as="targetPoint" />
          </mxGeometry>
        </mxCell>
        <mxCell id="B6rONMkFjjqVBBVzJMFH-113" value="" style="endArrow=none;html=1;rounded=0;entryX=0;entryY=0.5;entryDx=0;entryDy=0;exitX=1;exitY=0.25;exitDx=0;exitDy=0;" parent="1" source="B6rONMkFjjqVBBVzJMFH-3" target="B6rONMkFjjqVBBVzJMFH-108" edge="1">
          <mxGeometry width="50" height="50" relative="1" as="geometry">
            <mxPoint x="330" y="180" as="sourcePoint" />
            <mxPoint x="380" y="130" as="targetPoint" />
          </mxGeometry>
        </mxCell>
        <mxCell id="B6rONMkFjjqVBBVzJMFH-115" value="" style="endArrow=none;html=1;rounded=0;entryX=0;entryY=1;entryDx=0;entryDy=0;exitX=1;exitY=0;exitDx=0;exitDy=0;" parent="1" source="B6rONMkFjjqVBBVzJMFH-107" target="B6rONMkFjjqVBBVzJMFH-54" edge="1">
          <mxGeometry width="50" height="50" relative="1" as="geometry">
            <mxPoint x="915" y="215" as="sourcePoint" />
            <mxPoint x="950" y="170" as="targetPoint" />
          </mxGeometry>
        </mxCell>
        <mxCell id="B6rONMkFjjqVBBVzJMFH-116" value="" style="endArrow=classic;html=1;rounded=0;entryX=0.75;entryY=0;entryDx=0;entryDy=0;exitX=0.5;exitY=1;exitDx=0;exitDy=0;" parent="1" source="B6rONMkFjjqVBBVzJMFH-107" target="B6rONMkFjjqVBBVzJMFH-30" edge="1">
          <mxGeometry width="50" height="50" relative="1" as="geometry">
            <mxPoint x="490" y="380" as="sourcePoint" />
            <mxPoint x="540" y="330" as="targetPoint" />
          </mxGeometry>
        </mxCell>
        <mxCell id="B6rONMkFjjqVBBVzJMFH-117" value="" style="endArrow=none;html=1;rounded=0;entryX=0;entryY=0.5;entryDx=0;entryDy=0;exitX=1;exitY=0.5;exitDx=0;exitDy=0;" parent="1" source="B6rONMkFjjqVBBVzJMFH-106" target="B6rONMkFjjqVBBVzJMFH-77" edge="1">
          <mxGeometry width="50" height="50" relative="1" as="geometry">
            <mxPoint x="1140" y="520" as="sourcePoint" />
            <mxPoint x="1200" y="500" as="targetPoint" />
          </mxGeometry>
        </mxCell>
        <mxCell id="B6rONMkFjjqVBBVzJMFH-118" value="" style="endArrow=none;html=1;rounded=0;entryX=0;entryY=0.5;entryDx=0;entryDy=0;exitX=1;exitY=0.5;exitDx=0;exitDy=0;" parent="1" source="B6rONMkFjjqVBBVzJMFH-3" target="B6rONMkFjjqVBBVzJMFH-106" edge="1">
          <mxGeometry width="50" height="50" relative="1" as="geometry">
            <mxPoint x="470" y="320" as="sourcePoint" />
            <mxPoint x="610" y="320" as="targetPoint" />
            <Array as="points">
              <mxPoint x="520" y="200" />
            </Array>
          </mxGeometry>
        </mxCell>
        <mxCell id="_MxBYl4697DWa7cTRO-5-2" value="StartDate" style="ellipse;whiteSpace=wrap;html=1;" parent="1" vertex="1">
          <mxGeometry x="750" y="10" width="60" height="40" as="geometry" />
        </mxCell>
        <mxCell id="_MxBYl4697DWa7cTRO-5-5" value="" style="endArrow=none;html=1;rounded=0;entryX=0.5;entryY=1;entryDx=0;entryDy=0;" parent="1" source="B6rONMkFjjqVBBVzJMFH-108" target="_MxBYl4697DWa7cTRO-5-2" edge="1">
          <mxGeometry width="50" height="50" relative="1" as="geometry">
            <mxPoint x="830" y="120" as="sourcePoint" />
            <mxPoint x="880" y="70" as="targetPoint" />
          </mxGeometry>
        </mxCell>
        <mxCell id="_MxBYl4697DWa7cTRO-5-7" value="EndDate" style="ellipse;whiteSpace=wrap;html=1;" parent="1" vertex="1">
          <mxGeometry x="830" y="10" width="60" height="40" as="geometry" />
        </mxCell>
        <mxCell id="_MxBYl4697DWa7cTRO-5-8" value="" style="endArrow=none;html=1;rounded=0;entryX=0.5;entryY=1;entryDx=0;entryDy=0;exitX=0.5;exitY=0;exitDx=0;exitDy=0;" parent="1" source="B6rONMkFjjqVBBVzJMFH-108" target="_MxBYl4697DWa7cTRO-5-7" edge="1">
          <mxGeometry width="50" height="50" relative="1" as="geometry">
            <mxPoint x="850" y="120" as="sourcePoint" />
            <mxPoint x="900" y="70" as="targetPoint" />
          </mxGeometry>
        </mxCell>
        <mxCell id="_MxBYl4697DWa7cTRO-5-9" value="StartDate" style="ellipse;whiteSpace=wrap;html=1;" parent="1" vertex="1">
          <mxGeometry x="290" y="305" width="60" height="40" as="geometry" />
        </mxCell>
        <mxCell id="_MxBYl4697DWa7cTRO-5-10" value="EndDate" style="ellipse;whiteSpace=wrap;html=1;" parent="1" vertex="1">
          <mxGeometry x="290" y="360" width="60" height="40" as="geometry" />
        </mxCell>
        <mxCell id="_MxBYl4697DWa7cTRO-5-11" value="StartDate" style="ellipse;whiteSpace=wrap;html=1;" parent="1" vertex="1">
          <mxGeometry x="590" y="370" width="60" height="40" as="geometry" />
        </mxCell>
        <mxCell id="_MxBYl4697DWa7cTRO-5-12" value="EndDate" style="ellipse;whiteSpace=wrap;html=1;" parent="1" vertex="1">
          <mxGeometry x="660" y="380" width="60" height="40" as="geometry" />
        </mxCell>
        <mxCell id="_MxBYl4697DWa7cTRO-5-13" value="StartDate" style="ellipse;whiteSpace=wrap;html=1;" parent="1" vertex="1">
          <mxGeometry x="435" y="300" width="60" height="40" as="geometry" />
        </mxCell>
        <mxCell id="_MxBYl4697DWa7cTRO-5-14" value="EndDate" style="ellipse;whiteSpace=wrap;html=1;" parent="1" vertex="1">
          <mxGeometry x="515" y="300" width="60" height="40" as="geometry" />
        </mxCell>
        <mxCell id="_MxBYl4697DWa7cTRO-5-15" value="" style="endArrow=none;html=1;rounded=0;entryX=0;entryY=0;entryDx=0;entryDy=0;exitX=1;exitY=0.5;exitDx=0;exitDy=0;" parent="1" source="_MxBYl4697DWa7cTRO-5-9" target="B6rONMkFjjqVBBVzJMFH-105" edge="1">
          <mxGeometry width="50" height="50" relative="1" as="geometry">
            <mxPoint x="350" y="320" as="sourcePoint" />
            <mxPoint x="400" y="270" as="targetPoint" />
          </mxGeometry>
        </mxCell>
        <mxCell id="_MxBYl4697DWa7cTRO-5-16" value="" style="endArrow=none;html=1;rounded=0;entryX=0;entryY=1;entryDx=0;entryDy=0;exitX=1;exitY=0.5;exitDx=0;exitDy=0;" parent="1" source="_MxBYl4697DWa7cTRO-5-10" target="B6rONMkFjjqVBBVzJMFH-105" edge="1">
          <mxGeometry width="50" height="50" relative="1" as="geometry">
            <mxPoint x="320" y="440" as="sourcePoint" />
            <mxPoint x="370" y="390" as="targetPoint" />
          </mxGeometry>
        </mxCell>
        <mxCell id="_MxBYl4697DWa7cTRO-5-17" value="" style="endArrow=none;html=1;rounded=0;entryX=0;entryY=1;entryDx=0;entryDy=0;" parent="1" source="_MxBYl4697DWa7cTRO-5-13" target="B6rONMkFjjqVBBVzJMFH-107" edge="1">
          <mxGeometry width="50" height="50" relative="1" as="geometry">
            <mxPoint x="430" y="270" as="sourcePoint" />
            <mxPoint x="480" y="220" as="targetPoint" />
          </mxGeometry>
        </mxCell>
        <mxCell id="_MxBYl4697DWa7cTRO-5-18" value="" style="endArrow=none;html=1;rounded=0;entryX=1;entryY=1;entryDx=0;entryDy=0;exitX=0.5;exitY=0;exitDx=0;exitDy=0;" parent="1" source="_MxBYl4697DWa7cTRO-5-14" target="B6rONMkFjjqVBBVzJMFH-107" edge="1">
          <mxGeometry width="50" height="50" relative="1" as="geometry">
            <mxPoint x="530" y="330" as="sourcePoint" />
            <mxPoint x="580" y="280" as="targetPoint" />
          </mxGeometry>
        </mxCell>
        <mxCell id="_MxBYl4697DWa7cTRO-5-19" value="" style="endArrow=none;html=1;rounded=0;entryX=0;entryY=1;entryDx=0;entryDy=0;" parent="1" target="B6rONMkFjjqVBBVzJMFH-106" edge="1">
          <mxGeometry width="50" height="50" relative="1" as="geometry">
            <mxPoint x="630" y="370" as="sourcePoint" />
            <mxPoint x="680" y="320" as="targetPoint" />
          </mxGeometry>
        </mxCell>
        <mxCell id="_MxBYl4697DWa7cTRO-5-20" value="" style="endArrow=none;html=1;rounded=0;entryX=0.591;entryY=0.913;entryDx=0;entryDy=0;entryPerimeter=0;exitX=0.75;exitY=0.05;exitDx=0;exitDy=0;exitPerimeter=0;" parent="1" source="_MxBYl4697DWa7cTRO-5-12" target="B6rONMkFjjqVBBVzJMFH-106" edge="1">
          <mxGeometry width="50" height="50" relative="1" as="geometry">
            <mxPoint x="710" y="400" as="sourcePoint" />
            <mxPoint x="760" y="350" as="targetPoint" />
          </mxGeometry>
        </mxCell>
        <mxCell id="MlcpA8XJV3YfoGQXfNTS-1" value="Secondary Member" style="rhombus;whiteSpace=wrap;html=1;" vertex="1" parent="1">
          <mxGeometry x="750" y="225" width="90" height="80" as="geometry" />
        </mxCell>
        <mxCell id="MlcpA8XJV3YfoGQXfNTS-2" value="" style="endArrow=none;html=1;rounded=0;fontSize=12;startSize=8;endSize=8;curved=1;entryX=0.127;entryY=1;entryDx=0;entryDy=0;exitX=1;exitY=0;exitDx=0;exitDy=0;entryPerimeter=0;" edge="1" parent="1" source="MlcpA8XJV3YfoGQXfNTS-1" target="B6rONMkFjjqVBBVzJMFH-54">
          <mxGeometry width="50" height="50" relative="1" as="geometry">
            <mxPoint x="860" y="270" as="sourcePoint" />
            <mxPoint x="910" y="220" as="targetPoint" />
          </mxGeometry>
        </mxCell>
        <mxCell id="MlcpA8XJV3YfoGQXfNTS-3" value="" style="endArrow=none;html=1;rounded=0;fontSize=12;startSize=8;endSize=8;curved=1;entryX=0;entryY=0;entryDx=0;entryDy=0;exitX=1;exitY=0;exitDx=0;exitDy=0;" edge="1" parent="1" source="B6rONMkFjjqVBBVzJMFH-30" target="MlcpA8XJV3YfoGQXfNTS-1">
          <mxGeometry width="50" height="50" relative="1" as="geometry">
            <mxPoint x="540" y="350" as="sourcePoint" />
            <mxPoint x="710" y="240" as="targetPoint" />
            <Array as="points">
              <mxPoint x="540" y="360" />
              <mxPoint x="640" y="280" />
            </Array>
          </mxGeometry>
        </mxCell>
        <mxCell id="MlcpA8XJV3YfoGQXfNTS-6" value="relation" style="ellipse;whiteSpace=wrap;html=1;" vertex="1" parent="1">
          <mxGeometry x="850" y="285" width="80" height="45" as="geometry" />
        </mxCell>
        <mxCell id="MlcpA8XJV3YfoGQXfNTS-7" value="" style="endArrow=none;html=1;rounded=0;fontSize=12;startSize=8;endSize=8;curved=1;entryX=1;entryY=1;entryDx=0;entryDy=0;exitX=0;exitY=0;exitDx=0;exitDy=0;" edge="1" parent="1" source="MlcpA8XJV3YfoGQXfNTS-6" target="MlcpA8XJV3YfoGQXfNTS-1">
          <mxGeometry width="50" height="50" relative="1" as="geometry">
            <mxPoint x="860" y="280" as="sourcePoint" />
            <mxPoint x="910" y="230" as="targetPoint" />
          </mxGeometry>
        </mxCell>
      </root>
    </mxGraphModel>
  </diagram>
</mxfile>
